HIERARCHY
ROOT Hips
{
  OFFSET 29.0378 98.6471 -20.01
  CHANNELS 6 Xposition Yposition Zposition Zrotation Xrotation Yrotation
  JOINT spine
  {
    OFFSET 0 8.30104 0.477351
    CHANNELS 3 Zrotation Xrotation Yrotation
    JOINT spine1
    {
      OFFSET 0 10.4565 0
      CHANNELS 3 Zrotation Xrotation Yrotation
      JOINT spine2
      {
        OFFSET 0 10.0192 0
        CHANNELS 3 Zrotation Xrotation Yrotation
        JOINT Neck
        {
          OFFSET 0 25.7235 1.22641
          CHANNELS 3 Zrotation Xrotation Yrotation
          JOINT Head
          {
            OFFSET 0 7.77175 0
            CHANNELS 3 Zrotation Xrotation Yrotation
            End Site
            {
              OFFSET 0 18.812 -6.20394
            }
          }
        }
        JOINT RightShoulder
        {
          OFFSET -4.2188 10.82 -0.587439
          CHANNELS 3 Zrotation Xrotation Yrotation
          JOINT RightArm
          {
            OFFSET 0 14.1914 0
            CHANNELS 3 Zrotation Xrotation Yrotation
            JOINT RightArmRoll
            {
              OFFSET 0 7.16409 0
              CHANNELS 3 Zrotation Xrotation Yrotation
              JOINT RightForeArm
              {
                OFFSET 0 20.8665 0
                CHANNELS 3 Zrotation Xrotation Yrotation
                JOINT RightForeArmRoll
                {
                  OFFSET 0 8.03921 0
                  CHANNELS 3 Zrotation Xrotation Yrotation
                  JOINT RightHand
                  {
                    OFFSET 0 16.133 0
                    CHANNELS 3 Zrotation Xrotation Yrotation
                    End Site
                    {
                      OFFSET 0 0 0
                    }
                  }
                }
              }
            }
          }
        }
        JOINT LeftShoulder
        {
          OFFSET 4.2188 10.82 -0.587439
          CHANNELS 3 Zrotation Xrotation Yrotation
          JOINT LeftArm
          {
            OFFSET 0 14.1914 0
            CHANNELS 3 Zrotation Xrotation Yrotation
            JOINT LeftArmRoll
            {
              OFFSET 0 7.16408 0
              CHANNELS 3 Zrotation Xrotation Yrotation
              JOINT LeftForeArm
              {
                OFFSET 0 20.8665 0
                CHANNELS 3 Zrotation Xrotation Yrotation
                JOINT LeftForeArmRoll
                {
                  OFFSET 0 8.03921 0
                  CHANNELS 3 Zrotation Xrotation Yrotation
                  JOINT LeftHand
                  {
                    OFFSET 0 16.133 0
                    CHANNELS 3 Zrotation Xrotation Yrotation
                    End Site
                    {
                      OFFSET 0 0 0
                    }
                  }
                }
              }
            }
          }
        }
      }
    }
  }
  JOINT RightUpLeg
  {
    OFFSET -7.35773 -1.34921 -1.13181
    CHANNELS 3 Zrotation Xrotation Yrotation
    JOINT RightUpLegRoll
    {
      OFFSET 0 18.9168 0
      CHANNELS 3 Zrotation Xrotation Yrotation
      JOINT RightLeg
      {
        OFFSET 0 -23.4256 0
        CHANNELS 3 Zrotation Xrotation Yrotation
        JOINT RightLegRoll
        {
          OFFSET 0 23.5023 0
          CHANNELS 3 Zrotation Xrotation Yrotation
          JOINT RightFoot
          {
            OFFSET 0 19.5617 0
            CHANNELS 3 Zrotation Xrotation Yrotation
            JOINT RightToeBase
            {
              OFFSET 0 16.3526 0
              CHANNELS 3 Zrotation Xrotation Yrotation
              End Site
              {
                OFFSET 0.00693125 7.91944 -0.912837
              }
            }
          }
        }
      }
    }
  }
  JOINT LeftUpLeg
  {
    OFFSET 7.35773 -1.34921 -1.13181
    CHANNELS 3 Zrotation Xrotation Yrotation
    JOINT LeftUpLegRoll
    {
      OFFSET 0 18.9169 0
      CHANNELS 3 Zrotation Xrotation Yrotation
      JOINT LeftLeg
      {
        OFFSET 0 23.4255 0
        CHANNELS 3 Zrotation Xrotation Yrotation
        JOINT LeftLegRoll
        {
          OFFSET 0 23.7195 0
          CHANNELS 3 Zrotation Xrotation Yrotation
          JOINT LeftFoot
          {
            OFFSET 0 19.3444 0
            CHANNELS 3 Zrotation Xrotation Yrotation
            JOINT LeftToeBase
            {
              OFFSET 0 16.3526 0
              CHANNELS 3 Zrotation Xrotation Yrotation
              End Site
              {
                OFFSET -0.0310629 7.91944 -0.912837
              }
            }
          }
        }
      }
    }
  }
}
MOTION
Frames: 5
Frame Time: 0.00208333
32.7026 98.9066 -4.21612 0.701509 -3.97303 2.32445 0.117335 -0.649232 0.241049 0.238942 2.71852 0.47428 0.233467 4.36355 0.470799 -0.089061 17.2379 -1.78219 -1.77668 -6.34719 -2.08631 74.6797 -0.615346 -2.11705 93.2167 27.0212 23.9385 -7.95139e-015 -3.18055e-015 3.18055e-015 8.53816 0.0637547 -0.0313062 7.43893e-006 -2.01052e-006 -3.05778 8.02908 -4.95146 0.697667 -67.2712 4.55725 -1.31973 -100.271 18.7908 -12.5802 1.19271e-015 3.18055e-015 -0 -10.5915 6.40787 1.18292 2.75777e-006 -2.46574e-006 3 -8.02893 -4.95147 -0.697692 172.221 -3.35644 2.71623 180 7.01508e-015 178.766 176.942 5.22827 179.681 -2.44767e-006 -2.10421e-006 0.0626673 -18.8117 67.9898 19.5181 8.12886 25.2331 -3.48448 -172.018 -2.46966 -1.22551 4.54188e-006 -4.6773e-006 -1.34186 -3.00534 -7.06525 0.490084 1.9642e-006 -4.48545e-006 -0.0667771 17.6578 66.2529 -18.1727 -8.12589 25.2333 3.48321 
32.6999 98.9052 -4.21673 0.702877 -3.9806 2.32284 0.117311 -0.647632 0.241028 0.239182 2.72069 0.474895 0.233729 4.36573 0.4714 -0.0945737 17.2404 -1.7777 -1.77432 -6.35114 -2.08317 74.6743 -0.615559 -2.11661 93.2167 27.0371 23.9506 -6.36111e-015 9.54166e-015 -3.18055e-015 8.52113 0.0637575 -0.0331384 7.43893e-006 -2.01052e-006 -3.05778 8.02908 -4.95146 0.697667 -67.2814 4.55909 -1.31898 -100.253 18.8066 -12.6087 -2.78299e-015 -9.54166e-015 3.18055e-015 -10.5726 6.36727 1.17821 2.75777e-006 -2.46574e-006 3 -8.02893 -4.95147 -0.697692 172.22 -3.36574 2.71549 180 7.01508e-015 178.766 176.945 5.22985 179.681 -2.44767e-006 -2.10421e-006 0.0626673 -18.812 67.9902 19.5184 8.12886 25.2331 -3.48448 -172.019 -2.48058 -1.22618 4.54188e-006 -4.6773e-006 -1.34185 -3.00583 -7.0651 0.49002 1.9642e-006 -4.48545e-006 -0.0667771 17.658 66.253 -18.1731 -8.12589 25.2333 3.48321 
32.7088 98.9079 -4.20426 0.704311 -3.98846 2.32118 0.117275 -0.645945 0.240998 0.239463 2.72298 0.475557 0.234043 4.36802 0.472045 -0.100589 17.2424 -1.77304 -1.77158 -6.35464 -2.07995 74.6686 -0.615838 -2.11618 93.2171 27.0534 23.9631 3.18055e-015 0 -0 8.50353 0.0637604 -0.0350588 7.43893e-006 -2.01052e-006 -3.05778 8.02908 -4.95146 0.697667 -67.292 4.56088 -1.31814 -100.235 18.8228 -12.6372 -1.23246e-014 -1.27222e-014 -1.59028e-015 -10.5535 6.32652 1.17349 2.75777e-006 -2.46574e-006 3 -8.02893 -4.95147 -0.697692 172.22 -3.37551 2.71476 180 7.01508e-015 178.766 176.948 5.23121 179.681 -2.44767e-006 -2.10421e-006 0.0626673 -18.8123 67.9905 19.5187 8.12886 25.2331 -3.48448 -172.02 -2.49189 -1.2268 4.54188e-006 -4.6773e-006 -1.34184 -3.00628 -7.06489 0.489957 1.9642e-006 -4.48545e-006 -0.0667771 17.6581 66.2532 -18.1736 -8.12589 25.2333 3.48321 
32.7133 98.9065 -4.20671 0.705792 -3.99651 2.31948 0.117231 -0.644198 0.240963 0.239771 2.72536 0.476253 0.234393 4.3704 0.472723 -0.106956 17.244 -1.76826 -1.76857 -6.35782 -2.07667 74.6626 -0.616162 -2.11574 93.2178 27.07 23.9758 -4.77083e-015 -3.18055e-015 -0 8.48552 0.0637634 -0.0370409 7.43893e-006 -2.01052e-006 -3.05778 8.02908 -4.95146 0.697667 -67.3028 4.56264 -1.31724 -100.216 18.8394 -12.6657 1.59028e-015 -3.18055e-015 1.59028e-015 -10.5343 6.28568 1.16875 2.75777e-006 -2.46574e-006 3 -8.02893 -4.95147 -0.697692 172.22 -3.38561 2.71402 180 7.01508e-015 178.766 176.951 5.2324 179.681 -2.44767e-006 -2.10421e-006 0.0626673 -18.8125 67.9908 19.5189 8.12886 25.2331 -3.48448 -172.021 -2.50347 -1.2274 4.54188e-006 -4.6773e-006 -1.34182 -3.00671 -7.06464 0.489894 1.9642e-006 -4.48545e-006 -0.0667771 17.6583 66.2535 -18.1741 -8.12589 25.2333 3.48321 
32.7052 98.9073 -4.18592 0.707298 -4.00468 2.31777 0.117182 -0.642416 0.240924 0.240095 2.72778 0.476967 0.234764 4.37282 0.473418 -0.113525 17.2454 -1.76342 -1.7654 -6.36082 -2.07336 74.6566 -0.616512 -2.1153 93.2187 27.0867 23.9887 1.59028e-015 0 6.36111e-015 8.46729 0.0637664 -0.0390583 7.43893e-006 -2.01052e-006 -3.05778 8.02908 -4.95146 0.697667 -67.3139 4.56437 -1.3163 -100.197 18.8561 -12.6943 -7.95139e-015 0 1.59028e-015 -10.5151 6.24477 1.164 2.75777e-006 -2.46574e-006 3 -8.02893 -4.95147 -0.697692 172.219 -3.39589 2.71328 180 7.01508e-015 178.766 176.954 5.23349 179.681 -2.44767e-006 -2.10421e-006 0.0626673 -18.8128 67.9911 19.5192 8.12886 25.2331 -3.48448 -172.022 -2.51522 -1.22797 4.54188e-006 -4.6773e-006 -1.3418 -3.00712 -7.06438 0.489833 1.9642e-006 -4.48545e-006 -0.0667771 17.6585 66.2538 -18.1747 -8.12589 25.2333 3.48321 
